# xmcd
#
# Track frame offsets:
#	150
#	15086
#	30598
#	50622
#	70040
#	85462
#	103672
#	120238
#	138724
#	156721
#	169802
#	180495
#
# Disc length: 2658 seconds
#
# Revision: 2
# Processed by: cddbd v1.5.2PL0 Copyright (c) Steve Scherf et al.
# Submitted via: audiograbber 1.83.01
#
DISCID=990a600c
DTITLE=America - Here and Now - Disc 1
DYEAR=2006
DGENRE=Rock
TTITLE0=Chasing The Rainbow
TTITLE1=Indian Summer
TTITLE2=One Chance
TTITLE3=Golden
TTITLE4=Always Love
TTITLE5=Ride On
TTITLE6=Love and Leaving
TTITLE7=Look At Me Now
TTITLE8=This Time
TTITLE9=Work To Do
TTITLE10=All I Think About Is You
TTITLE11=Walk In The Woods
EXTD=
EXTT0=
EXTT1=
EXTT2=
EXTT3=
EXTT4=
EXTT5=
EXTT6=
EXTT7=
EXTT8=
EXTT9=
EXTT10=
EXTT11=
PLAYORDER=
